HIERARCHY
ROOT Hips
{
  OFFSET 57.8838 95.319 338.509
  CHANNELS 6 Xposition Yposition Zposition Zrotation Xrotation Yrotation
  JOINT LeftUpLeg
  {
    OFFSET 8.64259 1.95398 -2.38835
    CHANNELS 3 Zrotation Xrotation Yrotation
    JOINT LeftLeg
    {
      OFFSET 43.7702 0 0
      CHANNELS 3 Zrotation Xrotation Yrotation
      JOINT LeftFoot
      {
        OFFSET 40.6238 0 0
        CHANNELS 3 Zrotation Xrotation Yrotation
        JOINT LeftToeBase
        {
          OFFSET 12.7242 0 0
          CHANNELS 3 Zrotation Xrotation Yrotation
          End Site
          {
            OFFSET 0 0 0
          }
        }
      }
    }
  }
  JOINT RightUpLeg
  {
    OFFSET -8.2249 1.95398 -2.59336
    CHANNELS 3 Zrotation Xrotation Yrotation
    JOINT RightLeg
    {
      OFFSET 43.5653 0 0
      CHANNELS 3 Zrotation Xrotation Yrotation
      JOINT RightFoot
      {
        OFFSET 40.6238 0 0
        CHANNELS 3 Zrotation Xrotation Yrotation
        JOINT RightToeBase
        {
          OFFSET 12.7242 0 0
          CHANNELS 3 Zrotation Xrotation Yrotation
          End Site
          {
            OFFSET 0 0 0
          }
        }
      }
    }
  }
  JOINT Spine
  {
    OFFSET 0.165834 0.87714 6.61349
    CHANNELS 3 Zrotation Xrotation Yrotation
    JOINT Spine1
    {
      OFFSET 7.38963 1.71661e-005 0
      CHANNELS 3 Zrotation Xrotation Yrotation
      JOINT Spine2
      {
        OFFSET 11.9445 1.14441e-005 0
        CHANNELS 3 Zrotation Xrotation Yrotation
        JOINT Spine3
        {
          OFFSET 14.7254 4.19617e-005 0
          CHANNELS 3 Zrotation Xrotation Yrotation
          JOINT Spine4
          {
            OFFSET 10.9679 0 0
            CHANNELS 3 Zrotation Xrotation Yrotation
            JOINT RightShoulder
            {
              OFFSET 2.46616 -1.6653 3.69651
              CHANNELS 3 Zrotation Xrotation Yrotation
              JOINT RightArm
              {
                OFFSET 13.0012 0 0
                CHANNELS 3 Zrotation Xrotation Yrotation
                JOINT RightForeArm
                {
                  OFFSET 28.7848 1.62311e-005 0
                  CHANNELS 3 Zrotation Xrotation Yrotation
                  JOINT RightHand
                  {
                    OFFSET 26.5688 1.62095e-005 0
                    CHANNELS 3 Zrotation Xrotation Yrotation
                    End Site
                    {
                      OFFSET 0 0 0
                    }
                  }
                }
              }
            }
            JOINT LeftShoulder
            {
              OFFSET 2.38034 -1.29275 -3.7523
              CHANNELS 3 Zrotation Xrotation Yrotation
              JOINT LeftArm
              {
                OFFSET 16.3182 6.07031e-005 0
                CHANNELS 3 Zrotation Xrotation Yrotation
                JOINT LeftForeArm
                {
                  OFFSET 27.0901 0 0
                  CHANNELS 3 Zrotation Xrotation Yrotation
                  JOINT LeftHand
                  {
                    OFFSET 24.5451 1.51738e-005 0
                    CHANNELS 3 Zrotation Xrotation Yrotation
                    End Site
                    {
                      OFFSET 0 0 0
                    }
                  }
                }
              }
            }
            JOINT Neck
            {
              OFFSET 5.0226 -0.0266342 0
              CHANNELS 3 Zrotation Xrotation Yrotation
              JOINT Head
              {
                OFFSET 6.69364 2.86102e-005 0
                CHANNELS 3 Zrotation Xrotation Yrotation
                End Site
                {
                  OFFSET 0 0 0
                }
              }
            }
          }
        }
      }
    }
  }
}
MOTION
Frames:	14
Frame Time:	0.0416667
263.498 79.2155 266.264 -51.7347 52.9461 -69.7859 -152.178 -6.28244 133.768 174.229 -83.5889 177.074 -11.6969 -43.448 -64.2434 15.9082 -66.776 108.082 178.401 33.0619 140.514 87.978 59.7291 -145.136 35.5004 30.2294 8.87021 -8.34886 -36.9501 -169.725 2.05338 12.0067 -94.1954 2.87241 2.45217 -8.17014 -8.82248 2.09148 -8.26919 -31.2131 4.78857 -7.06466 -11.2004 4.78857 -7.06465 102.434 -14.2508 -81.4296 64.7693 -19.9781 -26.2742 -165.284 15.1328 -83.2249 35.1387 -5.29428 -21.3185 172.725 -35.1928 -40.3745 -7.94231 -0.0845714 -166.347 -170.649 7.496 179.993 26.6422 71.9624 136.304 23.29 -4.01869 10.3103 34.5689 -10.2709 -8.90539 
263.97 79.1452 266.716 -51.1642 52.8219 -69.5643 -153.76 -3.44078 134.472 -174.139 -88.8156 -166.643 -13.4909 -44.4323 -69.1176 9.76938 -71.3361 101.585 179.243 32.6258 140.478 89.9857 59.6125 -146.451 35.3236 30.5596 9.2896 -5.18291 -34.8138 -168.384 2.11878 11.9561 -94.3036 2.97503 2.53671 -8.38565 -8.72112 2.16654 -8.48816 -31.1045 4.93352 -7.24559 -11.0918 4.93351 -7.24559 102.575 -13.9578 -81.0401 64.8701 -20.2413 -26.3301 -163.959 15.2246 -83.5292 35.6059 -5.24791 -20.9573 172.779 -34.954 -40.4616 -8.07098 -0.215088 -166.17 -171.006 9.82635 179.993 31.7597 74.2757 131.407 23.223 -4.12351 10.4958 34.7234 -10.4141 -8.83639 
265.443 78.927 268.138 -49.3906 52.4298 -68.8868 -158.647 5.16071 137.736 -27.2265 -61.573 -7.55841 -0.922076 -52.7165 -74.0515 -110.754 -66.0293 -13.0538 -178.144 31.3129 140.382 96.3826 59.2524 -150.38 35.0039 31.4294 10.3944 4.31878 -27.5457 -164.921 2.31989 11.7904 -94.6375 3.31102 2.7944 -9.05384 -8.38922 2.39494 -9.16673 -30.749 5.37856 -7.80805 -10.7364 5.37856 -7.80805 102.994 -13.0474 -79.847 65.1879 -21.0245 -26.4641 -159.708 15.5134 -84.4973 37.0995 -5.03204 -19.6674 172.924 -34.2757 -40.7164 -8.47399 -0.677582 -165.596 -172.082 15.951 179.992 55.7137 79.5831 108.17 22.99 -4.46189 11.073 35.1983 -10.8647 -8.61776 
267.853 78.5489 270.49 -46.4979 51.7698 -67.8139 -161.669 14.9638 142.638 -27.8868 10.0417 -12.6295 72.1339 -32.0877 -8.00621 49.0138 -0.266974 -65.4331 -173.777 29.2348 140.207 107.47 58.6565 -156.366 35.2649 32.4302 11.5451 18.9201 -14.0648 -161.519 2.64261 11.4924 -95.1758 3.91619 3.19981 -10.1412 -7.79132 2.75279 -10.2703 -30.1088 6.08898 -8.72855 -10.0961 6.08899 -8.72855 103.625 -11.5354 -77.9448 65.7415 -22.1909 -26.5481 -152.359 15.9696 -86.1453 39.5921 -4.39717 -16.9896 173.095 -33.361 -41.0808 -9.14714 -1.59173 -164.574 -173.711 20.6628 179.992 102.187 81.9568 63.3607 22.5214 -5.06897 12.0225 35.9711 -11.626 -8.23258 
271.322 78.0713 273.699 -42.5497 50.8224 -66.4006 -163.385 22.9341 147.361 -18.4742 45.6722 -21.9426 69.2117 -4.68563 11.2791 74.5535 23.0853 11.9061 -167.37 26.3583 139.872 124.579 57.7972 -164 37.6167 33.0492 11.6165 37.8521 5.6738 -160.891 3.07411 11.0255 -95.9005 4.86417 3.72415 -11.6289 -6.85467 3.21238 -11.7786 -29.1055 7.0308 -9.999 -9.09287 7.03081 -9.99901 104.387 -9.34645 -75.4144 66.6295 -23.5656 -26.3603 -141.657 16.4717 -88.4973 42.7974 -2.85396 -12.1871 173.2 -32.4853 -41.4739 -10.1092 -3.1009 -162.958 -174.721 -21.4209 179.991 -0.938808 56.442 171.146 21.6771 -6.03925 13.3427 37.0529 -12.7379 -7.62837 
275.911 77.6303 277.834 -37.6705 49.5609 -64.7134 -169.984 33.6344 155.475 -14.6934 58.2684 -31.5957 67.0727 9.43093 16.3177 67.8135 24.0392 21.9244 -155.803 20.3391 137.876 157.42 56.8414 -174.34 47.4212 30.7673 7.17908 61.103 27.8322 -165.706 3.59422 10.3423 -96.7829 6.2489 4.32195 -13.4868 -5.48644 3.72986 -13.6594 -27.6387 8.15027 -11.6066 -7.62608 8.15026 -11.6065 105.165 -6.31013 -72.3492 68.0466 -24.9114 -25.5764 -127.978 16.7549 -91.3626 45.7239 0.145074 -4.69136 173.139 -31.9788 -41.7868 -11.3784 -5.24673 -160.518 2.83276 26.9289 0.00477649 -151.431 -65.6635 13.4886 20.2704 -7.52255 15.0314 38.4755 -14.2655 -6.72709 
281.625 77.3777 282.899 -32.0712 47.9564 -62.8376 177.938 44.7491 167.338 -8.32772 67.0679 -43.1224 66.3522 21.5133 18.3917 60.6441 22.1909 30.7385 -149.019 19.6433 139.172 174.312 53.9456 -179.069 51.9149 31.9473 5.88196 88.2627 45.613 -177.277 4.17634 9.31423 -97.7821 8.32794 4.92023 -15.6729 -3.4302 4.23457 -15.8673 -25.4421 9.36329 -13.5355 -5.42948 9.36328 -13.5355 105.71 -2.1133 -69.1567 70.614 -25.3791 -23.0318 -113.092 16.652 -94.0115 46.9111 4.42723 5.00339 172.272 -32.9633 -41.8642 -13.1398 -7.26477 -156.317 -4.61503 70.645 -0.0207539 -122.24 -36.7083 18.2901 17.4319 -10.0426 16.8296 40.4526 -16.3895 -5.29081 
288.428 77.4771 288.855 -25.9943 45.9778 -60.9019 155.551 53.7899 -173.671 2.75376 74.5521 -59.405 65.9854 31.097 19.1592 54.0943 19.0184 37.4853 -148.266 24.3886 143.245 174.591 50.2357 -179.465 50.0825 36.5462 8.18247 115.983 56.0676 167.243 4.76706 8.12066 -98.8162 10.7402 5.44781 -18.0218 -1.04658 4.66287 -18.2339 -22.8763 10.551 -15.6506 -2.86367 10.551 -15.6507 106.057 3.46059 -65.0762 73.749 -26.1052 -20.4414 -99.3212 16.2428 -95.8122 45.8728 8.75553 15.1824 172.005 -33.079 -41.99 -14.9176 -8.92835 -151.896 -7.83394 68.6083 -0.032032 -99.0341 -37.7593 29.4275 15.0022 -12.9099 19.146 42.4553 -18.8677 -3.67615 
296.409 77.7076 295.762 -19.6038 43.5838 -59.1049 124.188 56.3882 -148.782 26.3351 79.0128 -86.3703 65.1555 36.2329 18.435 49.0152 15.7734 42.4921 -148.703 29.6928 146.965 175.35 46.6513 -179.855 48.6253 40.5726 10.0063 139.382 61.5094 153.033 5.71623 6.47618 -99.7229 14.1317 6.5932 -20.3901 2.31441 5.70894 -20.6447 -19.3442 12.3294 -17.6123 0.668413 12.3294 -17.6123 106.466 9.94012 -57.4153 77.4795 -26.0498 -17.0323 -88.1665 16.1842 -96.4024 43.6478 12.0444 24.0553 170.082 -29.5741 -45.1116 -18.2563 -2.64386 -145.657 -9.54765 73.0337 -0.53831 -91.9926 -35.4909 31.2682 13.2387 -18.1256 20.6488 44.9866 -22.5584 -0.302869 
305.763 77.2423 303.777 -12.9487 40.7293 -57.7037 93.1111 51.3488 -129.741 51.3133 83.4595 -114.358 66.0142 37.6281 16.4571 45.519 13.1616 46.1388 -150.256 35.1531 150.239 175.907 43.1421 179.884 46.8803 44.3494 11.8566 156.743 64.8327 142.384 6.43421 4.63869 -100.363 17.8979 7.28103 -22.3561 6.05145 6.31576 -22.634 -15.4313 13.5486 -19.3279 4.58132 13.5486 -19.3279 105.5 17.5733 -50.9019 81.9018 -25.014 -12.5609 -79.558 16.2592 -96.1756 41.2962 14.1466 30.8753 168.402 -27.0836 -47.459 -22.2179 1.71631 -138.757 -6.16576 74.8631 -5.71348 -90.6973 -33.5241 30.0134 11.0485 -23.1447 21.9307 47.5483 -25.9858 2.7654 
315.549 76.9846 312.28 -6.10911 37.4486 -56.8899 70.7106 44.8911 -125.618 -160.292 85.5886 99.4288 71.1565 34.3756 12.4055 43.2732 11.3342 48.8609 -152.949 40.5458 152.948 176.316 39.7737 179.716 45.0797 47.6827 13.5931 169.329 67.4206 134.67 6.90571 2.89185 -100.706 21.5308 7.53658 -23.7945 9.66047 6.51296 -24.0787 -11.6649 14.1994 -20.6609 8.34775 14.1994 -20.661 103.347 25.4174 -45.3177 85.8441 -24.0392 -8.55303 -73.0327 16.3687 -95.3474 39.3367 15.3753 35.7181 169.258 -24.5586 -48.2034 -26.2023 0.129843 -132.361 -0.603109 73.7247 -13.1738 -91.4426 -31.841 27.8664 9.00959 -27.1406 23.5638 49.7287 -28.8441 4.97252 
325.499 76.7105 321.069 0.559822 33.995 -56.593 57.2009 40.1644 -128.827 -130.859 79.0095 78.9623 75.0506 27.079 6.08373 41.8652 10.1441 50.9925 -156.171 45.4606 154.961 176.625 36.6646 179.62 43.1394 50.5788 15.3279 178.719 69.671 128.83 8.50242 -1.06903 -98.9393 29.9464 10.5001 -22.6092 18.114 9.52182 -23.0197 -3.60759 16.7034 -18.6164 16.4051 16.7034 -18.6164 97.9793 36.8381 -35.7201 92.3933 -4.35914 9.55685 -66.4979 17.4761 -95.9959 37.9154 16.2202 39.3341 132.918 -20.8665 -68.8398 -71.7091 23.1572 -74.3839 166.343 68.4956 -179.945 -87.1541 -30.6121 29.2064 0.709765 -43.1911 8.92575 58.2728 -34.5607 17.3952 
335.283 76.2683 329.865 6.55449 30.7504 -56.5368 51.359 38.0977 -134.337 -103.485 78.0254 68.3265 75.1128 16.2637 -2.19421 40.9859 9.39629 52.7129 -159.18 49.6132 156.289 176.884 33.9312 179.579 41.0366 53.0499 17.1123 -174.016 71.6783 124.168 8.70839 -2.52334 -98.3996 32.9596 10.7675 -22.2712 21.135 9.80277 -22.6942 -0.651334 16.863 -18.2032 19.3613 16.863 -18.2032 92.6017 45.4255 -32.8462 94.8615 0.430628 15.2255 -61.9763 17.1294 -95.055 36.6986 16.5717 41.6361 131.403 -18.8714 -69.9842 -74.3377 17.6839 -68.9184 164.003 67.5667 -179.938 -88.1746 -29.4851 27.4369 -1.07285 -45.9964 8.80407 60.3228 -36.3957 19.0393 
344.573 75.5798 338.352 11.58 27.9615 -56.4943 52.9323 38.7523 -140.023 -41.272 81.7335 30.8267 69.1026 2.81889 -12.1693 40.4324 8.93431 54.1118 -161.536 52.931 157.059 177.11 31.6103 179.574 38.7942 55.1276 18.9471 -168.165 73.4639 120.249 8.89098 -3.66976 -97.7741 35.3573 11.1381 -21.6634 23.5458 10.1977 -22.1045 1.65496 17.0436 -17.4937 21.6676 17.0436 -17.4937 86.9057 52.7807 -30.1324 96.3163 4.93674 20.3272 -58.1992 16.6559 -93.9141 35.7465 16.7 43.1355 130.605 -17.0642 -70.7301 -75.5868 12.7824 -65.095 161.605 66.9119 -179.931 -88.9883 -28.5282 25.9946 -2.53411 -48.0413 8.5811 61.9247 -37.8772 19.9447 
